<?xml version="1.0" encoding="UTF-8"?>
<svg width="51px" height="82px" viewBox="0 0 51 82" version="1.1" xmlns="http://www.w3.org/2000/svg" xmlns:xlink="http://www.w3.org/1999/xlink">
    <title>user-svgrepo-com</title>
    <g id="Page-1" stroke="none" stroke-width="1" fill="none" fill-rule="evenodd">
        <g id="user-svgrepo-com" transform="translate(1.000000, 1.000000)">
            <line x1="24.7595231" y1="48.2777036" x2="24.7595231" y2="80" id="Line" stroke="#1D4560" stroke-width="1.5" stroke-linecap="round"></line>
            <path d="M8.17324888,42.1084112 C3.15879389,37.6873698 0,31.2668625 0,24.1285981 C0,10.7988251 10.9793282,0 24.5319092,0 C38.0731964,0 49.0638184,10.7988251 49.0638184,24.1285981 C49.0638184,31.266008 45.9154496,37.6754072 40.9009946,42.0861949 C36.5598249,45.9210681 30.8164843,48.2571963 24.5319092,48.2571963 C18.2473341,48.2571963 12.5144186,45.9330307 8.17324888,42.1084112 Z" id="Path" stroke="#1D4560" stroke-width="1.5" fill="#1D4560"></path>
            <path d="M40.6803308,41.8264352 C40.6803308,41.8264352 37.8195199,39.5885714 34.4504873,38.7631509 C31.0814546,37.9377303 29.557658,35.6127103 29.557658,35.6127103 L29.557658,31.5496929 C29.557658,31.5496929 32.0101539,28.3232043 31.6669956,26.0853405 C31.6669956,26.0853405 34.7041638,24.0969826 32.5948262,21.1969025 C32.5948262,21.1969025 37.0793405,8.75748999 28.6958529,9.58376502 C28.6958529,9.58376502 27.1381748,7.23738318 24.0019685,7.26951922 C11.6196007,7.41084112 16.5020049,21.1969025 16.5020049,21.1969025 C14.3926673,24.0978371 17.4298355,26.0853405 17.4298355,26.0853405 C17.0875459,28.3232043 19.5391731,31.5496929 19.5391731,31.5496929 L19.5391731,35.6127103 C19.5391731,35.6127103 18.0145077,37.9377303 14.6463438,38.7631509 C11.2773112,39.5885714 8.41650033,41.8264352 8.41650033,41.8264352" id="Path" stroke="#000000" stroke-width="0.5" stroke-linecap="round" stroke-linejoin="round"></path>
            <path d="M40.6803308,41.8264352 L40.9009946,42.0870494 C36.5598249,45.9219226 30.8164843,48.2580507 24.5319092,48.2580507 C18.2473341,48.2580507 12.5144186,45.9330307 8.17324888,42.1092657 L8.41650033,41.8264352 C8.41650033,41.8264352 11.2773112,39.5885714 14.6463438,38.7631509 C18.0153765,37.9377303 19.5391731,35.6127103 19.5391731,35.6127103 L19.5391731,31.5496929 C19.5391731,31.5496929 17.0866772,28.3232043 17.4298355,26.0853405 C17.4298355,26.0853405 14.3926673,24.0969826 16.5020049,21.1969025 C16.5020049,21.1969025 11.6196007,7.41084112 24.0019685,7.26951922 C27.1390436,7.23738318 28.6958529,9.58376502 28.6958529,9.58376502 C37.0793405,8.75834446 32.5948262,21.1969025 32.5948262,21.1969025 C34.7041638,24.0978371 31.6669956,26.0853405 31.6669956,26.0853405 C32.0092852,28.3232043 29.557658,31.5496929 29.557658,31.5496929 L29.557658,35.6127103 C29.557658,35.6127103 31.0823234,37.9377303 34.4504873,38.7631509 C37.8195199,39.5885714 40.6803308,41.8264352 40.6803308,41.8264352 Z" id="Path" fill="#FFFFFF" fill-rule="nonzero"></path>
        </g>
    </g>
</svg>